<svg xmlns="http://www.w3.org/2000/svg" xmlns:xlink="http://www.w3.org/1999/xlink" width="500" zoomAndPan="magnify" viewBox="0 0 375 374.999991" height="500" preserveAspectRatio="xMidYMid meet" version="1.0"><defs><g/><clipPath id="76e14efd60"><path d="M 3.660156 124.050781 L 86 124.050781 L 86 250.800781 L 3.660156 250.800781 Z M 3.660156 124.050781 " clip-rule="nonzero"/></clipPath><clipPath id="b1a4624fdc"><path d="M 3.660156 124.050781 L 86 124.050781 L 86 220 L 3.660156 220 Z M 3.660156 124.050781 " clip-rule="nonzero"/></clipPath><clipPath id="453db5f1d8"><path d="M 115 124.050781 L 140.160156 124.050781 L 140.160156 150 L 115 150 Z M 115 124.050781 " clip-rule="nonzero"/></clipPath><clipPath id="55077e3c10"><path d="M 56 125 L 140.160156 125 L 140.160156 250 L 56 250 Z M 56 125 " clip-rule="nonzero"/></clipPath><clipPath id="c2e6cccfbd"><path d="M 56 125 L 140.160156 125 L 140.160156 219 L 56 219 Z M 56 125 " clip-rule="nonzero"/></clipPath></defs><rect x="-37.5" width="450" fill="#ffffff" y="-37.499999" height="449.999989" fill-opacity="1"/><rect x="-37.5" width="450" fill="#ffffff" y="-37.499999" height="449.999989" fill-opacity="1"/><g clip-path="url(#76e14efd60)"><path fill="#72ffff" d="M 36.128906 130.398438 L 80.003906 174.25 C 80.441406 174.691406 80.859375 175.152344 81.257812 175.632812 C 81.652344 176.113281 82.023438 176.613281 82.367188 177.128906 C 82.714844 177.648438 83.035156 178.179688 83.328125 178.730469 C 83.621094 179.28125 83.886719 179.84375 84.125 180.417969 C 84.363281 180.992188 84.574219 181.578125 84.753906 182.175781 C 84.933594 182.769531 85.085938 183.375 85.207031 183.984375 C 85.328125 184.59375 85.421875 185.210938 85.480469 185.828125 C 85.542969 186.449219 85.574219 187.070312 85.574219 187.691406 C 85.574219 188.316406 85.542969 188.9375 85.480469 189.554688 C 85.421875 190.175781 85.328125 190.792969 85.207031 191.402344 C 85.085938 192.011719 84.933594 192.617188 84.753906 193.210938 C 84.574219 193.808594 84.363281 194.394531 84.125 194.96875 C 83.886719 195.542969 83.621094 196.105469 83.328125 196.65625 C 83.035156 197.203125 82.714844 197.738281 82.367188 198.253906 C 82.023438 198.773438 81.652344 199.273438 81.257812 199.753906 C 80.859375 200.234375 80.441406 200.695312 80.003906 201.136719 L 36.128906 244.988281 C 24.144531 256.964844 3.652344 248.476562 3.660156 231.53125 L 3.660156 143.824219 C 3.652344 126.90625 24.144531 118.421875 36.128906 130.398438 Z M 36.128906 130.398438 " fill-opacity="1" fill-rule="nonzero"/></g><g clip-path="url(#b1a4624fdc)"><path fill="#00d7ff" d="M 36.128906 130.398438 C 24.214844 118.488281 3.953125 126.8125 3.671875 143.542969 C 3.671875 143.542969 72.710938 208.835938 61.730469 219.476562 L 80.042969 201.175781 C 80.480469 200.734375 80.898438 200.273438 81.296875 199.792969 C 81.691406 199.3125 82.0625 198.8125 82.40625 198.292969 C 82.753906 197.777344 83.074219 197.242188 83.367188 196.695312 C 83.660156 196.144531 83.925781 195.582031 84.164062 195.007812 C 84.402344 194.433594 84.613281 193.847656 84.792969 193.25 C 84.972656 192.65625 85.125 192.050781 85.246094 191.441406 C 85.367188 190.828125 85.460938 190.214844 85.519531 189.59375 C 85.582031 188.976562 85.613281 188.355469 85.613281 187.730469 C 85.613281 187.109375 85.582031 186.488281 85.519531 185.867188 C 85.460938 185.25 85.367188 184.632812 85.246094 184.023438 C 85.125 183.410156 84.972656 182.808594 84.792969 182.210938 C 84.613281 181.617188 84.402344 181.03125 84.164062 180.457031 C 83.925781 179.882812 83.660156 179.320312 83.367188 178.769531 C 83.074219 178.21875 82.753906 177.6875 82.40625 177.167969 C 82.0625 176.652344 81.691406 176.152344 81.296875 175.671875 C 80.898438 175.191406 80.480469 174.730469 80.042969 174.289062 Z M 36.128906 130.398438 " fill-opacity="1" fill-rule="nonzero"/></g><g clip-path="url(#453db5f1d8)"><path fill="#590696" d="M 140.160156 136.613281 C 140.160156 137.429688 140.082031 138.238281 139.921875 139.039062 C 139.761719 139.839844 139.527344 140.617188 139.214844 141.367188 C 138.902344 142.121094 138.519531 142.839844 138.066406 143.515625 C 137.613281 144.195312 137.097656 144.824219 136.519531 145.398438 C 135.941406 145.976562 135.3125 146.492188 134.636719 146.945312 C 133.957031 147.398438 133.242188 147.78125 132.484375 148.09375 C 131.730469 148.40625 130.953125 148.640625 130.152344 148.800781 C 129.355469 148.960938 128.546875 149.039062 127.730469 149.039062 C 126.914062 149.039062 126.105469 148.960938 125.304688 148.800781 C 124.503906 148.640625 123.726562 148.40625 122.972656 148.09375 C 122.21875 147.78125 121.5 147.398438 120.824219 146.945312 C 120.144531 146.492188 119.515625 145.976562 118.9375 145.398438 C 118.363281 144.824219 117.847656 144.195312 117.394531 143.515625 C 116.9375 142.839844 116.554688 142.121094 116.242188 141.367188 C 115.929688 140.617188 115.695312 139.839844 115.535156 139.039062 C 115.378906 138.238281 115.296875 137.429688 115.296875 136.613281 C 115.296875 135.796875 115.378906 134.992188 115.535156 134.191406 C 115.695312 133.390625 115.929688 132.613281 116.242188 131.859375 C 116.554688 131.105469 116.9375 130.390625 117.394531 129.710938 C 117.847656 129.03125 118.363281 128.40625 118.9375 127.828125 C 119.515625 127.25 120.144531 126.738281 120.824219 126.285156 C 121.5 125.828125 122.21875 125.449219 122.972656 125.136719 C 123.726562 124.824219 124.503906 124.585938 125.304688 124.429688 C 126.105469 124.269531 126.914062 124.1875 127.730469 124.1875 C 128.546875 124.1875 129.355469 124.269531 130.152344 124.429688 C 130.953125 124.585938 131.730469 124.824219 132.484375 125.136719 C 133.242188 125.449219 133.957031 125.828125 134.636719 126.285156 C 135.3125 126.738281 135.941406 127.25 136.519531 127.828125 C 137.097656 128.40625 137.613281 129.03125 138.066406 129.710938 C 138.519531 130.390625 138.902344 131.105469 139.214844 131.859375 C 139.527344 132.613281 139.761719 133.390625 139.921875 134.191406 C 140.082031 134.992188 140.160156 135.796875 140.160156 136.613281 Z M 140.160156 136.613281 " fill-opacity="1" fill-rule="nonzero"/><path fill="#590696" d="M 140.160156 136.613281 C 140.160156 137.429688 140.082031 138.238281 139.921875 139.039062 C 139.761719 139.839844 139.527344 140.617188 139.214844 141.367188 C 138.902344 142.121094 138.519531 142.839844 138.066406 143.515625 C 137.613281 144.195312 137.097656 144.824219 136.519531 145.398438 C 135.941406 145.976562 135.3125 146.492188 134.636719 146.945312 C 133.957031 147.398438 133.242188 147.78125 132.484375 148.09375 C 131.730469 148.40625 130.953125 148.640625 130.152344 148.800781 C 129.355469 148.960938 128.546875 149.039062 127.730469 149.039062 C 126.914062 149.039062 126.105469 148.960938 125.304688 148.800781 C 124.503906 148.640625 123.726562 148.40625 122.972656 148.09375 C 122.21875 147.78125 121.5 147.398438 120.824219 146.945312 C 120.144531 146.492188 119.515625 145.976562 118.9375 145.398438 C 118.363281 144.824219 117.847656 144.195312 117.394531 143.515625 C 116.9375 142.839844 116.554688 142.121094 116.242188 141.367188 C 115.929688 140.617188 115.695312 139.839844 115.535156 139.039062 C 115.378906 138.238281 115.296875 137.429688 115.296875 136.613281 C 115.296875 135.796875 115.378906 134.992188 115.535156 134.191406 C 115.695312 133.390625 115.929688 132.613281 116.242188 131.859375 C 116.554688 131.105469 116.9375 130.390625 117.394531 129.710938 C 117.847656 129.03125 118.363281 128.40625 118.9375 127.828125 C 119.515625 127.25 120.144531 126.738281 120.824219 126.285156 C 121.5 125.828125 122.21875 125.449219 122.972656 125.136719 C 123.726562 124.824219 124.503906 124.585938 125.304688 124.429688 C 126.105469 124.269531 126.914062 124.1875 127.730469 124.1875 C 128.546875 124.1875 129.355469 124.269531 130.152344 124.429688 C 130.953125 124.585938 131.730469 124.824219 132.484375 125.136719 C 133.242188 125.449219 133.957031 125.828125 134.636719 126.285156 C 135.3125 126.738281 135.941406 127.25 136.519531 127.828125 C 137.097656 128.40625 137.613281 129.03125 138.066406 129.710938 C 138.519531 130.390625 138.902344 131.105469 139.214844 131.859375 C 139.527344 132.613281 139.761719 133.390625 139.921875 134.191406 C 140.082031 134.992188 140.160156 135.796875 140.160156 136.613281 Z M 140.160156 136.613281 " fill-opacity="1" fill-rule="nonzero"/></g><g clip-path="url(#55077e3c10)"><path fill="#0096ff" d="M 134.582031 174.355469 L 90.707031 130.503906 C 78.929688 118.722656 47.535156 132.386719 58.28125 143.125 L 89.832031 174.667969 C 90.269531 175.109375 90.691406 175.570312 91.085938 176.050781 C 91.480469 176.53125 91.851562 177.03125 92.199219 177.546875 C 92.542969 178.066406 92.863281 178.597656 93.15625 179.148438 C 93.453125 179.695312 93.71875 180.257812 93.957031 180.832031 C 94.195312 181.410156 94.40625 181.992188 94.585938 182.589844 C 94.765625 183.183594 94.917969 183.789062 95.039062 184.398438 C 95.160156 185.007812 95.253906 185.625 95.3125 186.242188 C 95.375 186.863281 95.40625 187.484375 95.40625 188.105469 C 95.40625 188.730469 95.375 189.351562 95.3125 189.96875 C 95.253906 190.589844 95.160156 191.203125 95.039062 191.816406 C 94.917969 192.425781 94.765625 193.027344 94.585938 193.625 C 94.40625 194.21875 94.195312 194.804688 93.957031 195.378906 C 93.71875 195.957031 93.453125 196.519531 93.15625 197.066406 C 92.863281 197.617188 92.542969 198.148438 92.199219 198.667969 C 91.851562 199.183594 91.480469 199.683594 91.085938 200.164062 C 90.691406 200.644531 90.269531 201.105469 89.832031 201.546875 L 58.300781 233.070312 C 48.6875 242.667969 79.046875 256.828125 90.707031 245.175781 L 134.582031 201.320312 C 135.027344 200.878906 135.449219 200.417969 135.84375 199.9375 C 136.242188 199.453125 136.617188 198.953125 136.964844 198.4375 C 137.3125 197.917969 137.636719 197.382812 137.929688 196.832031 C 138.226562 196.28125 138.496094 195.71875 138.734375 195.140625 C 138.976562 194.5625 139.1875 193.976562 139.367188 193.378906 C 139.550781 192.78125 139.703125 192.175781 139.824219 191.5625 C 139.949219 190.949219 140.039062 190.332031 140.101562 189.710938 C 140.164062 189.085938 140.191406 188.464844 140.191406 187.839844 C 140.191406 187.214844 140.164062 186.589844 140.101562 185.96875 C 140.039062 185.347656 139.949219 184.730469 139.824219 184.117188 C 139.703125 183.503906 139.550781 182.898438 139.367188 182.300781 C 139.1875 181.703125 138.976562 181.113281 138.734375 180.539062 C 138.496094 179.960938 138.226562 179.398438 137.929688 178.847656 C 137.636719 178.296875 137.3125 177.761719 136.964844 177.242188 C 136.617188 176.722656 136.242188 176.222656 135.84375 175.742188 C 135.449219 175.257812 135.027344 174.796875 134.582031 174.355469 Z M 134.582031 174.355469 " fill-opacity="1" fill-rule="nonzero"/></g><g clip-path="url(#c2e6cccfbd)"><path fill="#5800ff" d="M 134.582031 174.355469 L 90.707031 130.503906 C 78.929688 118.722656 47.535156 132.386719 58.28125 143.125 L 89.832031 174.667969 C 91.355469 176.1875 92.582031 177.917969 93.515625 179.855469 C 94.449219 181.796875 95.035156 183.835938 95.269531 185.972656 C 106.140625 198.730469 115.179688 211.113281 117.0625 218.832031 L 134.613281 201.292969 C 135.054688 200.851562 135.472656 200.390625 135.871094 199.90625 C 136.265625 199.425781 136.636719 198.925781 136.984375 198.40625 C 137.332031 197.886719 137.652344 197.351562 137.945312 196.800781 C 138.242188 196.25 138.507812 195.6875 138.746094 195.109375 C 138.984375 194.535156 139.195312 193.949219 139.375 193.351562 C 139.558594 192.753906 139.707031 192.148438 139.828125 191.535156 C 139.953125 190.925781 140.042969 190.308594 140.101562 189.6875 C 140.164062 189.066406 140.195312 188.441406 140.191406 187.816406 C 140.191406 187.195312 140.160156 186.570312 140.097656 185.949219 C 140.039062 185.328125 139.945312 184.714844 139.820312 184.101562 C 139.699219 183.488281 139.546875 182.886719 139.363281 182.289062 C 139.183594 181.691406 138.972656 181.105469 138.730469 180.527344 C 138.492188 179.953125 138.222656 179.390625 137.925781 178.839844 C 137.632812 178.289062 137.308594 177.757812 136.960938 177.238281 C 136.613281 176.71875 136.242188 176.21875 135.84375 175.738281 C 135.445312 175.257812 135.027344 174.796875 134.582031 174.355469 Z M 134.582031 174.355469 " fill-opacity="1" fill-rule="nonzero"/></g><g fill="#231f20" fill-opacity="1"><g transform="translate(140.245572, 206.229608)"><g><path d="M 11.453125 0 L 11.453125 -12.09375 L 20.59375 -12.09375 C 28.203125 -12.09375 33.636719 -17.335938 33.636719 -25.136719 C 33.636719 -32.523438 28.148438 -37.902344 20.484375 -37.902344 L 4.515625 -37.902344 L 4.515625 0 Z M 11.453125 -31.714844 L 20.203125 -31.714844 C 23.882812 -31.714844 26.699219 -28.59375 26.699219 -25.136719 C 26.699219 -21.234375 23.882812 -18.28125 20.261719 -18.28125 L 11.453125 -18.28125 Z M 11.453125 -31.714844 "/></g></g></g><g fill="#231f20" fill-opacity="1"><g transform="translate(174.744544, 206.229608)"><g><path d="M 16.972656 0.863281 C 25.804688 0.863281 32.132812 -5.878906 32.132812 -14.324219 C 32.132812 -22.714844 25.804688 -29.511719 17 -29.511719 C 8.222656 -29.511719 1.921875 -22.683594 1.921875 -14.324219 C 1.921875 -5.910156 8.25 0.863281 16.972656 0.863281 Z M 17.027344 -5.40625 C 12.207031 -5.40625 8.613281 -9.140625 8.613281 -14.324219 C 8.613281 -19.480469 12.207031 -23.269531 17.027344 -23.269531 C 21.847656 -23.269531 25.445312 -19.480469 25.445312 -14.324219 C 25.445312 -9.140625 21.847656 -5.40625 17.027344 -5.40625 Z M 17.027344 -5.40625 "/></g></g></g><g fill="#231f20" fill-opacity="1"><g transform="translate(208.797649, 206.229608)"><g><path d="M 10.703125 0 L 10.703125 -13.320312 C 10.703125 -19.425781 13.851562 -22.851562 18.476562 -22.851562 L 21.179688 -22.851562 L 21.179688 -28.648438 L 18.113281 -28.648438 C 14.378906 -28.648438 11.761719 -26.613281 10.421875 -23.464844 L 10.421875 -28.648438 L 3.957031 -28.648438 L 3.957031 0 Z M 10.703125 0 "/></g></g></g><g fill="#231f20" fill-opacity="1"><g transform="translate(230.840206, 206.229608)"><g><path d="M 21.570312 0 L 21.570312 -5.601562 L 17.140625 -5.601562 C 14.992188 -5.601562 12.988281 -6.578125 12.988281 -10.589844 L 12.988281 -22.851562 L 21.570312 -22.851562 L 21.570312 -28.648438 L 12.988281 -28.648438 L 12.988281 -37.09375 L 6.242188 -37.039062 L 6.242188 -28.648438 L 0.304688 -28.648438 L 0.304688 -22.851562 L 6.242188 -22.851562 L 6.242188 -10.898438 C 6.242188 -1.449219 11.425781 0 15.746094 0 Z M 21.570312 0 "/></g></g></g><g fill="#231f20" fill-opacity="1"><g transform="translate(253.913832, 206.229608)"><g><path d="M 12.960938 0 L 12.960938 -22.878906 L 20.457031 -22.878906 L 20.457031 -28.648438 L 12.960938 -28.648438 L 12.960938 -29.765625 C 12.960938 -32.019531 14.296875 -34 16.804688 -34 L 20.59375 -34 L 20.59375 -39.601562 L 15.105469 -39.601562 C 8.640625 -39.601562 6.214844 -34.667969 6.214844 -30.292969 L 6.214844 -28.648438 L 0.5 -28.648438 L 0.5 -22.878906 L 6.214844 -22.878906 L 6.214844 0 Z M 12.960938 0 "/></g></g></g><g fill="#231f20" fill-opacity="1"><g transform="translate(274.813855, 206.229608)"><g><path d="M 16.972656 0.863281 C 25.804688 0.863281 32.132812 -5.878906 32.132812 -14.324219 C 32.132812 -22.714844 25.804688 -29.511719 17 -29.511719 C 8.222656 -29.511719 1.921875 -22.683594 1.921875 -14.324219 C 1.921875 -5.910156 8.25 0.863281 16.972656 0.863281 Z M 17.027344 -5.40625 C 12.207031 -5.40625 8.613281 -9.140625 8.613281 -14.324219 C 8.613281 -19.480469 12.207031 -23.269531 17.027344 -23.269531 C 21.847656 -23.269531 25.445312 -19.480469 25.445312 -14.324219 C 25.445312 -9.140625 21.847656 -5.40625 17.027344 -5.40625 Z M 17.027344 -5.40625 "/></g></g></g><g fill="#231f20" fill-opacity="1"><g transform="translate(308.86696, 206.229608)"><g><path d="M 10.703125 0 L 10.703125 -39.265625 L 3.957031 -39.265625 L 3.957031 0 Z M 10.703125 0 "/></g></g></g><g fill="#231f20" fill-opacity="1"><g transform="translate(323.496976, 206.229608)"><g><path d="M 7.273438 -33.109375 C 10.003906 -33.109375 11.539062 -34.808594 11.539062 -36.980469 C 11.539062 -39.070312 10.003906 -40.828125 7.300781 -40.828125 C 4.652344 -40.828125 3.121094 -39.070312 3.121094 -36.980469 C 3.121094 -34.835938 4.683594 -33.109375 7.273438 -33.109375 Z M 10.703125 0 L 10.703125 -28.648438 L 3.957031 -28.648438 L 3.957031 0 Z M 10.703125 0 "/></g></g></g><g fill="#231f20" fill-opacity="1"><g transform="translate(338.126992, 206.229608)"><g><path d="M 16.972656 0.863281 C 25.804688 0.863281 32.132812 -5.878906 32.132812 -14.324219 C 32.132812 -22.714844 25.804688 -29.511719 17 -29.511719 C 8.222656 -29.511719 1.921875 -22.683594 1.921875 -14.324219 C 1.921875 -5.910156 8.25 0.863281 16.972656 0.863281 Z M 17.027344 -5.40625 C 12.207031 -5.40625 8.613281 -9.140625 8.613281 -14.324219 C 8.613281 -19.480469 12.207031 -23.269531 17.027344 -23.269531 C 21.847656 -23.269531 25.445312 -19.480469 25.445312 -14.324219 C 25.445312 -9.140625 21.847656 -5.40625 17.027344 -5.40625 Z M 17.027344 -5.40625 "/></g></g></g></svg>